# xmcd
#
# Track frame offsets: 
#        150
#        28722
#        54954
#        110019
#        148603
#        188982
#        229957
#        246052
#        272508
#
# Disc length: 3874 seconds
#
# Revision: 0
# Processed by: cddbd v1.5.2PL0 Copyright (c) Steve Scherf et al.
# Submitted via: ExactAudioCopy v0.99pb5
#
DISCID=7b0f2009
DTITLE=Jürgen Kerth - Jürgen Kerth
DYEAR=1900
DGENRE=Blues
TTITLE0=Daß dir einer hilft
TTITLE1=Frühlingsmlancholie
TTITLE2=Mit ihr zu leben,...
TTITLE3=Komm herein
TTITLE4=Kerth's Soul
TTITLE5=Martha
TTITLE6=Wieder mal reingefallen
TTITLE7=Blues vom Blues
TTITLE8=Schwarze Perle
EXTD=
EXTT0=
EXTT1=
EXTT2=
EXTT3=
EXTT4=
EXTT5=
EXTT6=
EXTT7=
EXTT8=
PLAYORDER=
